<svg width="180.000000" height="180.000000" viewBox="0 0 180 180" fill="none" xmlns="http://www.w3.org/2000/svg" xmlns:xlink="http://www.w3.org/1999/xlink">
	<rect id="preload" width="180.000000" height="180.000000" fill="#FFFFFF" fill-opacity="0"/>
	<g clip-path="url(#clip117_1090)">
		<path id="Vector" d="M142.5 60L112.5 90L135 90C135 114.825 114.825 135 90 135C82.425 135 75.225 133.125 69 129.75L58.05 140.7C67.275 146.55 78.225 150 90 150C123.15 150 150 123.15 150 90L172.5 90L142.5 60ZM45 90C45 65.175 65.175 45 90 45C97.575 45 104.775 46.875 111 50.25L121.95 39.3C112.725 33.45 101.775 30 90 30C56.85 30 30 56.85 30 90L7.5 90L37.5 120L67.5 90L45 90Z" fill="#000000" fill-opacity="1.000000" fill-rule="nonzero"/>
	</g>
</svg>
